<?xml version="1.0" standalone="no"?>
<!DOCTYPE svg PUBLIC "-//W3C//DTD SVG 20010904//EN"
 "http://www.w3.org/TR/2001/REC-SVG-20010904/DTD/svg10.dtd">
<svg version="1.0" xmlns="http://www.w3.org/2000/svg"
 width="2560.000000pt" height="2560.000000pt" viewBox="0 0 2560.000000 2560.000000"
 preserveAspectRatio="xMidYMid meet">
<metadata>
Created by potrace 1.16, written by Peter Selinger 2001-2019
</metadata>
<g transform="translate(0.000000,2560.000000) scale(0.100000,-0.100000)"
fill="#000000" stroke="none">
<path d="M0 12800 l0 -12800 12800 0 12800 0 0 12800 0 12800 -12800 0 -12800
0 0 -12800z m25218 3 l-3 -12418 -12417 -3 -12418 -2 0 12420 0 12420 12420 0
12420 0 -2 -12417z"/>
<path d="M18945 24765 c-263 -90 -351 -126 -545 -226 -324 -168 -608 -387
-867 -671 -591 -647 -828 -1514 -697 -2553 29 -235 110 -602 131 -598 6 1 60
30 121 63 61 34 179 94 264 134 803 379 1395 919 1712 1561 294 595 376 1304
225 1945 -32 137 -119 421 -128 419 -3 -1 -100 -34 -216 -74z m-117 -617 c38
-171 49 -507 23 -683 -89 -608 -337 -1112 -746 -1520 -152 -152 -312 -279
-476 -376 -112 -67 -308 -163 -316 -155 -18 18 -36 245 -36 456 0 193 3 260
21 377 83 538 305 1000 664 1385 118 126 415 348 617 463 85 48 207 104 227
105 6 0 16 -24 22 -52z"/>
<path d="M13693 23348 c-25 -33 -117 -194 -168 -295 -163 -326 -270 -741 -306
-1194 -21 -252 9 -566 82 -858 112 -453 352 -896 689 -1277 201 -226 472 -465
709 -626 57 -39 144 -99 193 -134 48 -35 92 -65 98 -66 20 -5 207 448 274 662
116 374 176 749 176 1095 0 817 -295 1530 -870 2105 -151 151 -297 270 -485
395 -123 81 -348 205 -374 205 -5 0 -13 -6 -18 -12z m339 -765 c366 -305 633
-697 783 -1148 187 -565 176 -1178 -32 -1737 -13 -38 -29 -68 -33 -68 -27 0
-245 187 -369 316 -343 356 -587 845 -670 1346 -67 398 -51 730 49 1080 26 89
100 293 116 320 7 10 42 -15 156 -109z"/>
<path d="M19895 21045 c-11 -2 -69 -9 -130 -15 -332 -35 -728 -157 -1040 -319
-560 -290 -998 -748 -1326 -1386 -100 -193 -136 -275 -221 -495 -53 -138 -154
-488 -143 -498 2 -2 68 -12 147 -23 189 -24 739 -27 968 -4 734 74 1396 390
1925 920 192 192 330 372 460 604 117 209 227 494 274 712 34 161 72 402 64
409 -7 6 -162 34 -418 76 -82 14 -509 28 -560 19z m413 -441 c42 -5 43 -7 37
-32 -27 -110 -165 -408 -257 -556 -99 -160 -313 -413 -463 -547 -387 -346
-845 -558 -1378 -636 -117 -17 -528 -25 -543 -10 -12 12 62 222 121 345 296
614 800 1054 1499 1309 317 115 688 163 984 127z"/>
<path d="M16517 20096 c-75 -27 -95 -53 -207 -257 -670 -1231 -1107 -2661
-1255 -4109 -73 -724 -77 -1570 -9 -2360 232 -2711 1283 -5652 3104 -8690 806
-1344 1827 -2777 2749 -3855 169 -198 246 -273 293 -286 90 -24 203 14 242 80
24 42 27 145 7 206 -8 22 -37 65 -66 95 -233 250 -728 863 -1135 1405 -900
1199 -1678 2408 -2375 3690 -186 343 -585 1142 -740 1480 -948 2080 -1486
3985 -1649 5850 -55 622 -63 1389 -21 1960 113 1528 526 2963 1232 4274 88
164 127 248 131 278 18 164 -145 294 -301 239z"/>
<path d="M12057 19783 c-13 -23 -69 -208 -81 -268 -78 -380 -78 -839 0 -1180
201 -878 685 -1542 1469 -2015 147 -89 370 -200 535 -268 141 -58 562 -214
565 -210 2 3 19 145 41 343 8 72 17 225 21 340 25 862 -205 1607 -678 2195
-352 439 -895 797 -1510 995 -174 56 -350 89 -362 68z m568 -646 c397 -196
613 -351 834 -602 314 -355 510 -725 615 -1163 50 -209 61 -308 61 -589 0
-144 -3 -265 -8 -269 -9 -9 -172 54 -290 113 -620 309 -1095 860 -1328 1542
-66 192 -109 510 -109 796 0 202 6 265 24 265 6 0 97 -42 201 -93z"/>
<path d="M19260 18124 c-313 -21 -558 -69 -833 -164 -229 -79 -392 -160 -612
-306 -170 -112 -270 -192 -417 -332 -326 -313 -612 -737 -822 -1217 -59 -134
-209 -535 -203 -541 4 -4 201 -31 392 -54 120 -15 714 -32 840 -25 645 37
1165 226 1655 603 151 116 374 349 511 534 304 407 487 802 559 1201 30 166
37 150 -87 190 -150 49 -240 67 -453 92 -128 15 -432 26 -530 19z m527 -497
c17 -18 -94 -269 -196 -442 -257 -437 -612 -767 -1066 -990 -186 -91 -306
-136 -499 -185 -253 -65 -343 -75 -658 -75 -188 0 -281 4 -288 11 -24 24 128
342 253 529 141 213 350 445 532 592 307 247 698 438 1041 508 106 21 274 47
389 59 64 6 484 0 492 -7z"/>
<path d="M11156 16499 c-11 -34 -15 -428 -5 -564 26 -404 131 -778 324 -1166
429 -861 1217 -1424 2315 -1654 98 -21 462 -75 502 -75 14 0 9 280 -7 426 -93
837 -324 1462 -731 1974 -96 120 -321 341 -441 433 -503 384 -1143 611 -1790
634 -134 5 -163 4 -167 -8z m698 -563 c337 -113 558 -214 766 -350 575 -378
972 -951 1105 -1593 19 -95 45 -292 45 -348 l0 -44 -32 5 c-251 44 -565 155
-791 280 -231 128 -391 248 -578 434 -405 404 -627 835 -724 1405 -33 196 -41
285 -25 285 7 0 112 -33 234 -74z"/>
<path d="M6609 16023 c-142 -146 -223 -244 -319 -389 -135 -204 -227 -416
-275 -629 -157 -703 -14 -1421 385 -1941 97 -126 326 -397 338 -401 4 -1 34
33 67 75 33 42 87 108 121 147 306 353 492 759 565 1240 40 256 28 612 -27
870 -59 271 -220 590 -425 842 -68 83 -287 313 -299 313 -3 0 -63 -57 -131
-127z m225 -572 c208 -370 296 -673 296 -1020 0 -384 -105 -717 -322 -1019
-33 -46 -65 -81 -72 -79 -18 6 -103 134 -156 239 -141 274 -201 530 -201 853
0 317 67 582 218 865 51 96 161 260 174 260 4 0 33 -45 63 -99z"/>
<path d="M19000 15194 c-304 -30 -567 -98 -850 -220 -324 -140 -597 -331 -880
-614 -282 -281 -501 -593 -708 -1005 -51 -102 -192 -457 -192 -483 0 -11 403
-107 550 -132 288 -47 745 -60 980 -27 564 80 1101 315 1560 684 376 303 686
731 910 1258 43 101 120 319 120 340 0 13 -252 93 -413 130 -336 78 -730 104
-1077 69z m752 -452 c54 -10 101 -21 104 -25 13 -12 -158 -311 -264 -461 -102
-145 -296 -357 -437 -478 -306 -262 -738 -464 -1150 -537 -205 -36 -324 -44
-558 -38 -207 6 -424 31 -445 52 -10 10 91 200 171 324 314 483 794 850 1372
1048 175 60 350 99 610 137 17 2 136 3 265 1 175 -3 260 -9 332 -23z"/>
<path d="M9115 14253 c-175 -40 -310 -90 -476 -173 -242 -122 -410 -259 -623
-510 -310 -365 -500 -792 -567 -1280 -28 -203 -9 -568 40 -782 11 -46 27 -135
36 -198 9 -63 19 -117 21 -119 7 -8 240 63 333 101 750 310 1310 986 1458
1761 26 133 25 537 0 690 -27 159 -71 330 -110 427 -32 78 -37 85 -63 87 -16
0 -38 -1 -49 -4z m-161 -585 c62 -594 -76 -1046 -453 -1477 -65 -74 -231 -218
-334 -289 -75 -52 -265 -157 -272 -151 -2 3 -9 45 -16 94 -17 132 -6 423 21
550 88 416 316 799 618 1038 193 154 395 297 417 297 7 0 15 -25 19 -62z"/>
<path d="M3620 13404 c0 -343 43 -613 140 -886 239 -670 840 -1220 1573 -1442
160 -49 276 -72 503 -101 109 -14 216 -28 237 -32 l37 -6 0 137 c0 688 -255
1320 -729 1809 -433 447 -930 664 -1563 684 l-198 6 0 -169z m665 -331 c229
-79 396 -154 506 -227 369 -246 636 -594 772 -1004 45 -134 95 -358 83 -369
-10 -10 -161 26 -291 68 -461 151 -839 461 -1068 874 -120 216 -191 436 -204
627 l-6 100 24 -7 c13 -4 96 -32 184 -62z"/>
<path d="M19990 12834 c-19 -2 -78 -9 -130 -15 -385 -43 -696 -139 -1073 -331
-617 -316 -1086 -839 -1392 -1554 -69 -161 -178 -497 -220 -679 -20 -88 -52
-225 -71 -305 -19 -80 -34 -149 -34 -154 0 -4 129 -6 288 -3 283 4 458 20 687
61 602 108 1091 317 1500 640 120 95 324 298 418 416 325 407 570 966 652
1487 19 116 32 418 19 425 -11 7 -595 18 -644 12z m116 -511 c-3 -10 -10 -40
-16 -68 -43 -199 -156 -518 -251 -707 -71 -141 -209 -319 -378 -489 -223 -223
-439 -376 -726 -515 -232 -112 -389 -165 -650 -220 -125 -26 -370 -53 -381
-42 -11 11 25 153 78 307 128 376 336 710 623 997 201 202 352 318 590 454
255 147 507 224 906 279 182 25 212 26 205 4z"/>
<path d="M11980 12440 c-80 -4 -163 -10 -185 -13 -321 -48 -325 -49 -325 -71
0 -48 60 -361 95 -492 197 -748 685 -1392 1366 -1799 386 -230 799 -366 1261
-415 133 -14 1048 -13 1048 1 0 29 -76 304 -124 449 -271 824 -679 1423 -1244
1827 -405 290 -956 480 -1472 507 -233 13 -278 13 -420 6z m552 -495 c832
-124 1560 -701 1925 -1525 28 -63 67 -162 87 -219 l36 -104 -202 6 c-262 8
-437 36 -700 113 -388 113 -820 377 -1095 668 -101 107 -234 268 -296 359 -54
80 -153 271 -197 382 -43 108 -102 317 -93 326 23 22 371 18 535 -6z"/>
<path d="M6686 12155 c-54 -19 -106 -64 -133 -115 -21 -39 -23 -57 -23 -180 0
-180 16 -457 41 -710 166 -1696 880 -3312 2117 -4795 239 -286 440 -504 772
-836 536 -536 965 -908 1610 -1396 1484 -1121 3429 -2176 5264 -2854 146 -54
166 -59 252 -61 110 -4 133 8 177 93 39 73 36 162 -7 230 -41 64 -72 82 -236
135 -278 89 -827 306 -1255 494 -914 403 -1805 874 -2640 1393 -2656 1655
-4440 3632 -5215 5782 -219 608 -355 1205 -419 1840 -21 209 -41 551 -41 715
0 79 -4 104 -24 146 -26 56 -74 98 -133 120 -47 16 -59 16 -107 -1z"/>
<path d="M9795 12110 c-365 -66 -873 -360 -1146 -663 -359 -398 -562 -849
-619 -1376 -15 -134 -7 -474 13 -596 8 -44 24 -147 37 -230 13 -82 24 -151 25
-153 1 -1 65 27 141 64 76 36 193 86 259 111 489 182 894 502 1171 923 126
192 239 437 298 645 73 261 91 691 41 1030 -18 123 -74 266 -104 264 -9 -1
-61 -9 -116 -19z m-178 -715 c-3 -102 -14 -236 -25 -310 -72 -463 -371 -915
-790 -1192 -80 -53 -315 -173 -338 -173 -7 0 -14 31 -18 77 -38 455 107 927
395 1279 157 192 492 449 696 533 l68 28 9 -31 c4 -17 6 -112 3 -211z"/>
<path d="M4275 10728 c-113 -12 -297 -55 -385 -88 -41 -16 -87 -33 -102 -39
l-26 -10 23 -108 c51 -239 194 -562 361 -813 290 -438 762 -759 1312 -894 301
-74 531 -86 867 -48 203 23 536 71 544 78 3 3 -10 39 -29 82 -18 42 -59 147
-92 232 -70 186 -175 401 -258 528 -186 287 -458 554 -760 746 -186 119 -522
259 -720 301 -193 42 -529 57 -735 33z m578 -439 c266 -23 583 -155 847 -353
176 -131 362 -335 478 -522 52 -84 132 -237 132 -253 0 -16 -247 -24 -379 -12
-362 33 -687 146 -977 340 -202 135 -309 243 -468 473 -65 94 -156 270 -156
301 0 12 17 17 78 22 42 3 84 8 92 9 35 8 241 5 353 -5z"/>
<path d="M10760 10430 c-172 -37 -442 -150 -628 -262 -96 -58 -289 -197 -358
-258 -105 -93 -275 -301 -371 -455 -321 -515 -441 -1121 -337 -1702 9 -48 24
-144 34 -211 10 -68 21 -126 23 -129 3 -2 60 19 128 48 68 28 153 62 189 74
650 226 1187 745 1448 1400 92 230 120 378 129 666 6 208 -5 352 -41 524 -28
131 -96 319 -117 322 -8 0 -52 -7 -99 -17z m-173 -717 c-10 -329 -37 -487
-118 -689 -143 -362 -383 -654 -711 -868 -96 -62 -279 -159 -287 -151 -12 12
-18 239 -10 359 30 429 203 830 487 1128 82 86 309 262 426 330 68 40 191 97
210 98 5 0 7 -85 3 -207z"/>
<path d="M11775 8831 c-293 -122 -551 -298 -806 -551 -99 -98 -144 -152 -208
-250 -279 -426 -415 -878 -415 -1375 0 -260 26 -456 87 -661 14 -43 46 -152
72 -241 27 -90 51 -163 54 -163 3 0 60 39 126 86 66 47 154 103 195 124 41 21
129 73 195 117 525 348 899 895 1019 1495 65 322 57 617 -25 948 -34 137 -176
510 -193 509 -6 0 -51 -17 -101 -38z m-126 -553 c40 -125 67 -390 58 -583 -13
-257 -99 -549 -229 -770 -127 -217 -339 -453 -538 -600 l-104 -77 -13 37 c-55
159 -78 497 -49 705 41 294 142 558 307 805 76 114 222 274 323 354 71 56 218
160 228 161 3 0 11 -15 17 -32z"/>
<path d="M5440 8379 c-181 -10 -322 -32 -520 -80 -206 -51 -349 -104 -467
-175 -51 -30 -93 -57 -93 -59 0 -16 69 -175 107 -245 185 -344 465 -645 823
-884 159 -106 406 -214 608 -265 200 -52 323 -65 597 -65 280 0 395 12 647 69
101 23 598 162 606 170 5 5 -222 397 -277 478 -249 370 -648 704 -1040 872
-339 144 -656 204 -991 184z m330 -430 c496 -67 968 -347 1280 -759 l72 -95
-30 -12 c-42 -17 -210 -49 -332 -64 -142 -16 -412 -7 -560 20 -311 55 -644
207 -870 397 -169 141 -389 399 -363 425 12 12 182 55 293 75 181 31 343 35
510 13z"/>
<path d="M7359 6030 c-464 -29 -1011 -255 -1296 -535 l-93 -90 61 -100 c192
-314 469 -547 911 -766 322 -159 732 -242 1003 -204 452 63 911 212 1257 406
128 71 328 202 328 214 0 19 -236 289 -341 391 -226 218 -478 388 -741 498
-350 146 -717 209 -1089 186z m369 -430 c307 -32 607 -142 867 -317 103 -70
264 -201 273 -223 5 -14 -243 -129 -363 -169 -196 -65 -326 -85 -555 -85 -224
0 -359 20 -540 80 -111 37 -311 129 -414 191 -107 64 -249 174 -325 251 -85
86 -90 75 56 128 177 64 481 133 643 147 95 8 269 6 358 -3z"/>
</g>
</svg>
